# xmcd CD database file
#
# Track frame offsets:
#	180
#	12457
#	26289
#	44540
#	62039
#	77113
#	90249
#	100863
#	115276
#	129018
#
# Disc length: 1895 seconds
#
# Revision: 0
# Processed by: cddbd v1.5.1PL0 Copyright (c) Steve Scherf et al.
# Submitted via: CDex 1.51
#
DISCID=7007650a
DTITLE=Herb Sharman - Together Again
DYEAR=1900
DGENRE=Country
TTITLE0=Achy Breaky
TTITLE1=Just Call Me Lonesome
TTITLE2=Together Again
TTITLE3=Fast As You
TTITLE4=King Of Fools
TTITLE5=Honky Tonk Crowd
TTITLE6=Wear My Ring Around Your Neck
TTITLE7=Try Not To Look So Pretty
TTITLE8=Swinging Doors
TTITLE9=Wonder Of You
EXTD=
EXTT0=
EXTT1=
EXTT2=
EXTT3=
EXTT4=
EXTT5=
EXTT6=
EXTT7=
EXTT8=
EXTT9=
PLAYORDER=
